<?xml version="1.0" encoding="UTF-8"?><svg id="Layer_2" xmlns="http://www.w3.org/2000/svg" viewBox="0 0 38.9 38.9"><defs><style>.cls-1{fill:#545454;}</style></defs><g id="Layer_1-2"><path class="cls-1" d="M33.25,38.9H5.65c-1.04,0-1.88-.84-1.88-1.88V19.45H1.88c-1.04,0-1.88-.84-1.88-1.88,0-.54,.24-1.06,.65-1.42L19.04,.15c.24-.21,.59-.21,.82,0l18.39,15.99c.41,.36,.65,.88,.65,1.42,0,1.04-.84,1.88-1.88,1.88h-1.88v17.57c0,1.04-.84,1.88-1.88,1.88ZM19.45,1.46L1.47,17.09c-.14,.12-.22,.29-.22,.47,0,.35,.28,.63,.63,.63h2.51c.35,0,.63,.28,.63,.63v18.2c0,.35,.28,.63,.63,.63h27.61c.35,0,.63-.28,.63-.63V18.82c0-.35,.28-.63,.63-.63h2.51c.35,0,.63-.28,.63-.63,0-.18-.08-.35-.22-.48L19.45,1.46Z"/><g><path class="cls-1" d="M15.88,38.65c-.06,0-.12-.01-.18-.04-.24-.1-.35-.37-.25-.61,.33-.77,.48-1.62,.48-2.61,0-1.39-.17-2.61-.31-3.58-.09-.64-.16-1.15-.16-1.54,0-.72,.75-.86,1.35-.98,1.1-.21,1.83-.44,1.9-1.63l-.79-.79c-.17-.17-.3-.41-.47-.71-.39-.7-.93-1.67-2.11-1.96-.25-.06-.4-.32-.34-.56,.16-.64,.23-1.37,.18-1.71-.51,.1-1.65,.5-2.58,2.07-.04,.06-.09,.12-.15,.16-1.96,1.22-2.07,2.55-2.15,3.52-.06,.74-.14,1.67-1.35,1.67-1.31,0-2.74,.29-4.01,.82-.24,.1-.51-.01-.61-.25-.1-.24,.01-.51,.25-.61,1.4-.58,2.92-.89,4.37-.89,.32,0,.36,0,.42-.81,.09-1.02,.23-2.72,2.49-4.18,1.51-2.43,3.51-2.46,3.6-2.46,.12,0,.24,.05,.33,.14,.31,.31,.4,.85,.31,1.72-.03,.23-.06,.45-.09,.62,1.27,.49,1.88,1.59,2.26,2.27,.12,.21,.24,.43,.32,.51l.93,.93c.09,.09,.14,.21,.14,.33,0,.97-.33,1.69-.98,2.14-.53,.37-1.17,.49-1.68,.59-.2,.04-.47,.09-.59,.14,0,.33,.07,.8,.15,1.33,.14,1,.31,2.25,.31,3.71,0,1.1-.19,2.1-.56,2.97-.08,.18-.25,.28-.43,.28Z"/><path class="cls-1" d="M15.88,38.77c-.08,0-.16-.02-.23-.05-.15-.06-.26-.18-.32-.32-.06-.15-.06-.31,0-.45,.32-.75,.47-1.59,.47-2.56,0-1.39-.17-2.59-.3-3.56-.09-.64-.16-1.15-.16-1.56,0-.83,.84-.98,1.45-1.1,1.06-.2,1.71-.4,1.8-1.46l-.75-.75c-.18-.18-.32-.43-.49-.74-.38-.68-.9-1.62-2.03-1.9-.32-.08-.51-.4-.43-.72,.13-.53,.21-1.16,.19-1.53-.51,.13-1.52,.57-2.37,1.98-.05,.08-.12,.15-.19,.2-1.91,1.19-2.02,2.48-2.1,3.43-.06,.75-.15,1.78-1.48,1.78s-2.7,.29-3.96,.81c-.15,.06-.31,.06-.45,0-.15-.06-.26-.17-.32-.32-.06-.15-.06-.31,0-.45,.06-.15,.17-.26,.32-.32,1.42-.59,2.95-.9,4.42-.9q.24,0,.3-.7c.09-1.04,.23-2.77,2.53-4.25,1.54-2.46,3.6-2.49,3.69-2.49,.16,0,.31,.06,.42,.17,.34,.34,.44,.91,.34,1.82-.02,.17-.04,.35-.08,.53,1.25,.53,1.86,1.63,2.23,2.29,.1,.19,.23,.42,.3,.48l.93,.93c.11,.11,.17,.26,.17,.42,0,1.01-.35,1.77-1.04,2.25-.56,.39-1.21,.51-1.73,.61-.15,.03-.35,.07-.49,.1,.02,.32,.08,.76,.15,1.23,.14,1.01,.32,2.26,.32,3.73,0,1.12-.19,2.13-.57,3.02-.09,.22-.31,.36-.54,.36Zm-.58-17l.02,.13c.06,.38-.02,1.12-.18,1.76-.05,.18,.07,.37,.25,.41,1.23,.31,1.78,1.3,2.18,2.02,.16,.29,.29,.53,.45,.68l.83,.83v.06c-.08,1.28-.88,1.53-2.01,1.74-.71,.13-1.25,.28-1.25,.85,0,.39,.07,.89,.16,1.52,.14,.98,.31,2.2,.31,3.6,0,1-.16,1.88-.49,2.66-.04,.08-.04,.18,0,.26s.1,.15,.18,.19c.17,.07,.38-.01,.45-.18,.36-.86,.55-1.84,.55-2.93,0-1.45-.17-2.69-.31-3.69-.07-.52-.14-1.01-.15-1.35v-.08s.08-.03,.08-.03c.12-.05,.35-.1,.62-.15,.5-.09,1.12-.21,1.64-.57,.62-.43,.93-1.12,.93-2.04,0-.09-.04-.18-.1-.24l-.93-.93c-.09-.09-.21-.3-.34-.53-.39-.7-.97-1.74-2.2-2.22l-.1-.04,.02-.1c.04-.21,.07-.42,.09-.61,.09-.83,0-1.34-.27-1.62-.06-.06-.15-.1-.24-.1-.08,0-2.02,.03-3.49,2.4l-.04,.04c-2.21,1.43-2.35,3.09-2.44,4.08-.07,.78-.09,.93-.55,.93-1.44,0-2.93,.31-4.32,.88-.08,.04-.15,.1-.18,.18s-.03,.18,0,.26c.07,.17,.27,.25,.45,.18,1.29-.54,2.73-.83,4.06-.83,1.1,0,1.16-.79,1.23-1.55,.08-1,.2-2.36,2.21-3.62,.05-.03,.08-.07,.11-.11,.94-1.57,2.08-2.01,2.67-2.12l.13-.03Z"/></g><g><path class="cls-1" d="M21.99,25.15c-.07,0-.14-.02-.21-.05-.23-.11-.32-.39-.21-.62,.04-.08,1-1.98,2.49-2.97,.94-.62,2.02-.53,2.98-.46,.66,.05,1.28,.1,1.79-.06,1.23-.41,2.94-2.1,2.94-4.21,0-.4-1.23-.68-2.14-.88-1.1-.25-2.24-.5-2.85-1.12-.32-.32-.57-.72-.83-1.13-.75-1.21-1.53-2.46-4.43-2.46-.13,0-.24-.04-.33-.13-.04-.03-.39-.33-1.07-.33-.35,0-1.67,.31-2.95,.89-1.36,.62-2.17,1.33-2.17,1.9,0,.74,.69,2.12,1.71,3.44,1.08,1.39,2.08,2.15,2.48,2.15,.67,0,.93-.26,.93-.93,0-1.03-.13-1.86-.25-2.59-.2-1.25-.35-2.24,.32-3.25,.14-.21,.43-.27,.65-.13,.21,.14,.27,.43,.13,.65-.47,.71-.36,1.46-.18,2.59,.11,.73,.26,1.64,.26,2.74,0,1.18-.68,1.86-1.86,1.86s-2.76-1.92-3.22-2.51c-.92-1.19-1.9-2.87-1.9-4.01,0-.99,.94-1.94,2.72-2.75,1.28-.58,2.76-.97,3.33-.97,.8,0,1.32,.29,1.56,.47,3.29,.05,4.31,1.69,5.06,2.89,.23,.37,.45,.72,.69,.96,.42,.42,1.47,.66,2.4,.87,1.41,.32,2.86,.64,2.86,1.79,0,2.66-2.13,4.62-3.58,5.1-.69,.23-1.43,.17-2.16,.11-.89-.07-1.72-.14-2.39,.3-1.28,.85-2.16,2.6-2.17,2.61-.08,.16-.25,.26-.42,.26Z"/><path class="cls-1" d="M21.99,25.27c-.09,0-.18-.02-.26-.06-.14-.07-.25-.19-.3-.34-.05-.15-.04-.31,.03-.45,.04-.08,1.03-2.02,2.53-3.02,.97-.65,2.08-.56,3.06-.48,.65,.05,1.25,.1,1.74-.06,1.2-.4,2.85-2.04,2.85-4.09,0-.3-1.38-.61-2.04-.76-1.12-.25-2.27-.51-2.91-1.15-.33-.33-.58-.73-.84-1.15-.73-1.18-1.49-2.4-4.33-2.4-.17,0-.31-.06-.42-.17,0,0-.33-.29-.98-.29-.34,0-1.63,.3-2.9,.88-1.29,.59-2.1,1.27-2.1,1.79,0,.71,.68,2.06,1.68,3.36,1.12,1.45,2.07,2.1,2.38,2.1,.6,0,.81-.2,.81-.81,0-1.02-.13-1.85-.25-2.58-.2-1.28-.36-2.28,.34-3.34,.09-.13,.22-.22,.38-.25,.15-.03,.31,0,.44,.09,.13,.09,.22,.22,.25,.38s0,.31-.09,.44c-.45,.67-.33,1.4-.16,2.5,.12,.73,.26,1.65,.26,2.76,0,1.24-.74,1.99-1.99,1.99s-2.85-1.96-3.32-2.56c-.93-1.21-1.93-2.91-1.93-4.09,0-1.04,.96-2.04,2.79-2.87,1.3-.59,2.8-.98,3.39-.98,.8,0,1.34,.28,1.6,.47,3.33,.07,4.36,1.73,5.12,2.95,.23,.36,.44,.71,.68,.94,.4,.4,1.42,.63,2.33,.83,1.46,.33,2.96,.67,2.96,1.91,0,2.73-2.19,4.72-3.66,5.22-.71,.24-1.47,.17-2.21,.11-.86-.07-1.68-.14-2.31,.28-1.25,.83-2.12,2.55-2.13,2.57-.1,.2-.3,.33-.53,.33Zm4.03-4.16c-.65,0-1.3,.1-1.89,.49-1.45,.96-2.4,2.84-2.44,2.92-.04,.08-.05,.17-.02,.26s.09,.16,.17,.2c.16,.08,.38,.01,.46-.15,0-.02,.91-1.79,2.21-2.66,.7-.47,1.56-.4,2.47-.32,.71,.06,1.44,.12,2.11-.1,1.41-.47,3.49-2.38,3.49-4.98,0-1.05-1.4-1.36-2.76-1.67-.95-.21-2.01-.45-2.46-.9-.26-.26-.48-.61-.71-.98-.73-1.18-1.73-2.79-4.95-2.84h-.04s-.03-.02-.03-.02c-.23-.17-.72-.44-1.49-.44-.56,0-2.02,.39-3.28,.96-1.73,.79-2.64,1.7-2.64,2.64,0,1.11,.97,2.76,1.88,3.93,.92,1.19,2.22,2.46,3.12,2.46,1.12,0,1.74-.62,1.74-1.74s-.14-2-.26-2.72c-.18-1.16-.3-1.93,.2-2.68,.1-.16,.06-.37-.09-.47-.08-.05-.17-.07-.26-.05-.09,.02-.17,.07-.22,.15-.65,.97-.5,1.94-.31,3.16,.12,.74,.25,1.57,.25,2.62,0,.74-.32,1.06-1.06,1.06-.51,0-1.6-.92-2.58-2.2-1.04-1.34-1.73-2.75-1.73-3.52,0-.63,.82-1.37,2.24-2.02,1.3-.59,2.65-.9,3-.9,.73,0,1.11,.33,1.15,.36,.07,.07,.15,.1,.24,.1,2.97,0,3.77,1.28,4.54,2.52,.25,.41,.49,.8,.81,1.11,.59,.59,1.71,.84,2.79,1.08,1.27,.28,2.23,.54,2.23,1,0,2.17-1.76,3.91-3.03,4.33-.53,.18-1.16,.12-1.83,.07-.33-.03-.67-.06-1.02-.06Z"/></g><path class="cls-1" d="M4.77,22.28c-.26,0-.47-.21-.47-.47s.21-.47,.47-.47h0s3.13-.02,4.84-1.3c1.4-1.05,3.98-4.69,5.02-6.2,.15-.21,.44-.27,.65-.12,.21,.15,.27,.44,.12,.65-1.33,1.93-3.77,5.32-5.23,6.42-1.96,1.47-5.26,1.49-5.4,1.49Z"/></g></svg>